Coordinates
version=1
nRows=13
nColumns=63
inDegrees=yes

Units are S.I. units (second, meters, Newtons, ...)
If the header above contains a line with 'inDegrees', this indicates whether rotational values are in degrees (yes) or radians (no).

endheader
time	pelvis_tilt	pelvis_list	pelvis_rotation	pelvis_tx	pelvis_ty	pelvis_tz	hip_flexion_r	hip_adduction_r	hip_rotation_r	knee_angle_r	knee_angle_r_beta	ankle_angle_r	subtalar_angle_r	mtp_angle_r	hip_flexion_l	hip_adduction_l	hip_rotation_l	knee_angle_l	knee_angle_l_beta	ankle_angle_l	subtalar_angle_l	mtp_angle_l	L5_S1_Flex_Ext	L5_S1_Lat_Bending	L5_S1_axial_rotation	L4_L5_Flex_Ext	L4_L5_Lat_Bending	L4_L5_axial_rotation	L3_L4_Flex_Ext	L3_L4_Lat_Bending	L3_L4_axial_rotation	L2_L3_Flex_Ext	L2_L3_Lat_Bending	L2_L3_axial_rotation	L1_L2_Flex_Ext	L1_L2_Lat_Bending	L1_L2_axial_rotation	L1_T12_Flex_Ext	L1_T12_Lat_Bending	L1_T12_axial_rotation	Abs_r3	Abs_r2	Abs_r1	Abs_t1	Abs_t2	neck_flexion	neck_bending	neck_rotation	arm_flex_r	arm_add_r	arm_rot_r	elbow_flex_r	pro_sup_r	wrist_flex_r	wrist_dev_r	arm_flex_l	arm_add_l	arm_rot_l	elbow_flex_l	pro_sup_l	wrist_flex_l	wrist_dev_l
2.100000	-0.113471	-2.769824	92.284146	0.032412	0.860567	0.704765	7.238158	-1.187661	6.315666	17.243041	0.300948	36.533524	-4.609503	0.000000	0.361578	2.785581	3.669890	3.454034	0.060284	31.240565	-7.564853	0.000000	-0.083933	-0.279553	1.911589	-0.155872	-0.371805	2.031063	-0.137894	-0.679705	2.031063	-0.095927	-0.679705	1.672640	-0.077940	-0.570064	1.553166	-0.047959	-0.433028	1.433692	-0.599526	-3.162359	10.631684	0.000000	0.000000	16.573620	-0.093602	-9.980558	21.915904	-7.515316	-3.459723	96.778259	78.036188	-5.899753	18.725141	29.737990	-6.122005	18.461217	88.568737	73.942747	-7.140400	12.619270
2.116667	-0.195352	-2.946819	92.099793	0.032829	0.860106	0.704651	7.444049	-1.234312	6.607606	17.145227	0.299241	36.546925	-4.732568	0.000000	0.510339	2.882713	3.619102	3.405961	0.059445	31.263588	-7.782711	0.000000	-0.070689	-0.283547	1.964755	-0.131277	-0.377117	2.087553	-0.116135	-0.689416	2.087553	-0.080791	-0.689416	1.719161	-0.065642	-0.578209	1.596364	-0.040392	-0.439214	1.473567	-0.504926	-3.207539	10.927380	0.000000	0.000000	17.403161	0.144828	-9.791406	21.319023	-7.265787	-3.867640	96.884006	77.671565	-5.601416	18.401336	31.226611	-5.620760	18.670127	87.036962	72.069847	-6.389146	12.647891
2.133333	-0.260637	-3.136064	91.887296	0.033270	0.859662	0.704600	7.658497	-1.271173	6.903684	17.001766	0.296737	36.575739	-4.780633	0.000000	0.677658	2.959868	3.493305	3.359534	0.058635	31.325494	-7.941235	0.000000	-0.057789	-0.285994	2.000410	-0.107319	-0.380372	2.125435	-0.094941	-0.695365	2.125435	-0.066046	-0.695365	1.750359	-0.053662	-0.583198	1.625333	-0.033020	-0.443004	1.500307	-0.412778	-3.235218	11.125679	0.000000	0.000000	18.183313	0.381974	-9.553701	20.863308	-7.123232	-4.079494	97.295416	77.368306	-5.484338	17.989921	32.395142	-5.286575	18.840890	85.909271	70.464170	-5.603831	12.476607
2.150000	-0.305893	-3.341124	91.677457	0.033719	0.859242	0.704601	7.873245	-1.294606	7.194636	16.803230	0.293272	36.601686	-4.790975	0.000000	0.869180	3.010923	3.309727	3.321187	0.057966	31.417809	-8.017287	0.000000	-0.044595	-0.286781	2.010491	-0.082817	-0.381418	2.136147	-0.073264	-0.697279	2.136147	-0.050967	-0.697279	1.759180	-0.041410	-0.584803	1.633524	-0.025481	-0.444223	1.507868	-0.318534	-3.244120	11.181748	0.000000	0.000000	18.897191	0.626226	-9.258018	20.577908	-7.046315	-4.076901	98.011190	76.847273	-5.455064	17.626146	33.284055	-5.182800	19.065000	85.407728	68.460241	-4.822853	12.449519
2.166667	-0.331193	-3.545761	91.457436	0.034218	0.858893	0.704642	8.077942	-1.300945	7.481305	16.569483	0.289192	36.631747	-4.749105	0.000000	1.068526	3.032981	3.064592	3.301653	0.057625	31.523776	-8.017214	0.000000	-0.033147	-0.286744	2.007030	-0.061558	-0.381370	2.132470	-0.054458	-0.697190	2.132470	-0.037884	-0.697190	1.756152	-0.030781	-0.584729	1.630712	-0.018940	-0.444167	1.505273	-0.236769	-3.243708	11.162500	0.000000	0.000000	19.517535	0.856860	-8.998730	20.464562	-6.995665	-3.908289	99.023997	76.207752	-5.674166	17.313235	33.976654	-5.256527	19.341067	85.522049	67.112680	-3.917562	12.180946
2.183333	-0.357012	-3.757982	91.231246	0.034773	0.858604	0.704704	8.283246	-1.303533	7.799808	16.317858	0.284800	36.652814	-4.726814	0.000000	1.279251	3.047749	2.793364	3.297586	0.057554	31.602805	-7.990320	0.000000	-0.021461	-0.289049	1.996615	-0.039856	-0.384436	2.121403	-0.035259	-0.702795	2.121403	-0.024528	-0.702795	1.747038	-0.019929	-0.589430	1.622249	-0.012263	-0.447738	1.497461	-0.153297	-3.269785	11.104571	0.000000	0.000000	20.021870	1.081495	-8.818591	20.560708	-6.987382	-3.600207	100.300133	75.663675	-6.028374	17.154227	34.529620	-5.506027	19.693934	86.345671	66.292377	-2.935171	11.862192
2.200000	-0.385497	-3.965908	91.008164	0.035395	0.858392	0.704764	8.474140	-1.303947	8.125018	16.056689	0.280242	36.669719	-4.716128	0.000000	1.483729	3.055668	2.545465	3.305508	0.057692	31.644145	-7.965298	0.000000	-0.010287	-0.294193	1.987913	-0.019103	-0.391277	2.112157	-0.016900	-0.715301	2.112157	-0.011757	-0.715301	1.739424	-0.009552	-0.599919	1.615179	-0.005878	-0.455705	1.490935	-0.073476	-3.327972	11.056175	0.000000	0.000000	20.411096	1.292665	-8.748129	20.890055	-7.008931	-3.227133	101.785217	75.324269	-6.440230	17.066488	35.008555	-5.880837	20.160461	87.816089	65.967888	-2.054170	11.360454
2.216667	-0.405541	-4.156455	90.782877	0.036050	0.858275	0.704834	8.644241	-1.284818	8.496637	15.808722	0.275914	36.664436	-4.777642	0.000000	1.669060	3.049436	2.338173	3.324930	0.058031	31.632171	-7.991782	0.000000	-0.000697	-0.300374	1.991648	-0.001295	-0.399497	2.116126	-0.001146	-0.730328	2.116126	-0.000797	-0.730328	1.742692	-0.000648	-0.612522	1.618214	-0.000398	-0.465279	1.493736	-0.004981	-3.397886	11.076949	0.000000	0.000000	20.696656	1.457630	-8.835449	21.491500	-7.101712	-2.797643	103.429958	75.163044	-6.915101	16.977262	35.467596	-6.283434	20.708439	89.834027	66.097131	-1.332536	10.711372
2.233333	-0.404198	-4.332867	90.559913	0.036633	0.858244	0.704916	8.795090	-1.254379	8.805123	15.576280	0.271857	36.656014	-4.763249	0.000000	1.838253	3.021483	2.150452	3.351077	0.058487	31.584732	-8.021744	0.000000	0.010082	-0.303084	2.000425	0.018724	-0.403102	2.125451	0.016564	-0.736919	2.125451	0.011523	-0.736919	1.750372	0.009363	-0.618049	1.625345	0.005761	-0.469477	1.500319	0.072018	-3.428547	11.125762	0.000000	0.000000	20.893252	1.549919	-8.931900	22.460546	-7.256657	-2.232234	105.105539	75.305857	-7.315570	16.850328	35.898996	-6.651728	21.228207	92.285313	66.728428	-0.902772	9.789422
2.250000	-0.389161	-4.453331	90.369213	0.037141	0.858352	0.705050	8.895440	-1.211045	9.061991	15.395422	0.268701	36.637927	-4.745155	0.000000	1.959487	2.977833	2.004216	3.395440	0.059262	31.499030	-8.068138	0.000000	0.015476	-0.304383	2.024330	0.028740	-0.404830	2.150850	0.025425	-0.740077	2.150850	0.017687	-0.740077	1.771288	0.014371	-0.620698	1.644768	0.008843	-0.471490	1.518247	0.110543	-3.443244	11.258713	0.000000	0.000000	21.018868	1.628265	-9.120137	23.790128	-7.517261	-1.570464	106.802994	75.735187	-7.708594	16.617776	36.472003	-6.905529	21.776827	94.920932	67.822546	-0.736745	8.688165
2.266667	-0.347070	-4.535508	90.182578	0.037526	0.858562	0.705251	8.965947	-1.150164	9.244297	15.263607	0.266400	36.607123	-4.650906	0.000000	2.044287	2.911084	1.882618	3.439551	0.060031	31.380861	-8.135719	0.000000	0.019442	-0.300250	2.058870	0.036105	-0.399333	2.187549	0.031941	-0.730029	2.187549	0.022220	-0.730029	1.801511	0.018054	-0.612270	1.672832	0.011109	-0.465088	1.544152	0.138870	-3.396492	11.450816	0.000000	0.000000	21.106125	1.647456	-9.301319	25.536346	-7.854724	-0.744564	108.418107	76.434176	-7.929829	16.307973	37.182467	-7.034900	22.258910	97.635753	69.348005	-0.898914	7.381030
2.283333	-0.280294	-4.568330	90.005450	0.037766	0.858865	0.705527	9.005669	-1.077358	9.329345	15.204997	0.265377	36.576137	-4.462570	0.000000	2.084263	2.826066	1.786072	3.485490	0.060833	31.242869	-8.230277	0.000000	0.019629	-0.290377	2.106387	0.036454	-0.386202	2.238036	0.032249	-0.706024	2.238036	0.022434	-0.706024	1.843088	0.018228	-0.592138	1.711439	0.011216	-0.449795	1.579790	0.140211	-3.284807	11.715091	0.000000	0.000000	21.195347	1.636705	-9.438226	27.663514	-8.257658	0.185416	109.966172	77.386587	-7.841642	16.023395	38.104365	-7.021516	22.662413	100.306739	71.293359	-1.331032	6.106446
2.300000	-0.208315	-4.567031	89.807550	0.037938	0.859239	0.705852	9.037460	-1.010510	9.329489	15.226754	0.265757	36.561803	-4.148557	0.000000	2.087384	2.743577	1.709623	3.518863	0.061416	31.077632	-8.391074	0.000000	0.018728	-0.279041	2.177143	0.034780	-0.371124	2.313215	0.030769	-0.678460	2.313215	0.021404	-0.678460	1.905000	0.017391	-0.569020	1.768929	0.010701	-0.432234	1.632857	0.133773	-3.156566	12.108618	0.000000	0.000000	21.293085	1.584328	-9.697724	30.072568	-8.718517	1.116976	111.439660	78.606975	-7.355972	15.654422	39.295824	-6.857481	22.995857	102.686827	73.657241	-1.757523	4.509704
